<svg width="113" height="95" viewBox="0 0 113 95" fill="none" xmlns="http://www.w3.org/2000/svg">
<path d="M56.5 35.72C53.7287 35.72 51.0196 36.4109 48.7154 37.7053C46.4111 38.9997 44.6151 40.8395 43.5546 42.992C42.4941 45.1445 42.2166 47.5131 42.7572 49.7982C43.2979 52.0833 44.6324 54.1823 46.592 55.8297C48.5516 57.4772 51.0483 58.5991 53.7664 59.0536C56.4845 59.5082 59.3018 59.2749 61.8622 58.3833C64.4225 57.4917 66.6109 55.9818 68.1506 54.0446C69.6902 52.1074 70.512 49.8299 70.512 47.5C70.512 45.953 70.1496 44.4212 69.4454 42.992C68.7412 41.5628 67.7091 40.2642 66.408 39.1703C65.1068 38.0764 63.5622 37.2087 61.8622 36.6167C60.1621 36.0247 58.3401 35.72 56.5 35.72ZM112.604 24.0825C112.575 20.4144 111.771 16.7797 110.232 13.3475C109.097 10.836 107.343 8.5552 105.083 6.65563C102.824 4.75606 100.111 3.28091 97.1235 2.3275C93.041 1.03295 88.7177 0.357489 84.3545 0.3325C77.066 -3.18512e-07 74.919 0 56.5 0C38.081 0 35.934 -3.18512e-07 28.6455 0.3325C24.2823 0.357489 19.959 1.03295 15.8765 2.3275C12.8891 3.28091 10.1762 4.75606 7.9167 6.65563C5.65721 8.5552 3.90255 10.836 2.7685 13.3475C1.22867 16.7797 0.425224 20.4144 0.3955 24.0825C-3.78862e-07 30.21 0 32.015 0 47.5C0 62.985 -3.78862e-07 64.79 0.3955 70.9175C0.456316 74.5986 1.25867 78.2443 2.7685 81.7C3.89753 84.2 5.65073 86.4676 7.91 88.35C10.1598 90.261 12.8785 91.7361 15.8765 92.6725C19.959 93.967 24.2823 94.6425 28.6455 94.6675C35.934 95 38.081 95 56.5 95C74.919 95 77.066 95 84.3545 94.6675C88.7177 94.6425 93.041 93.967 97.1235 92.6725C100.121 91.7361 102.84 90.261 105.09 88.35C107.349 86.4676 109.102 84.2 110.232 81.7C111.77 78.251 112.573 74.601 112.604 70.9175C113 64.79 113 62.985 113 47.5C113 32.015 113 30.21 112.604 24.0825ZM98.2535 62.0825C98.0722 65.0137 97.3281 67.901 96.05 70.6325C94.9532 72.911 93.3225 74.9808 91.2551 76.7189C89.1877 78.457 86.7257 79.8279 84.0155 80.75C80.7357 81.7646 77.2822 82.326 73.789 82.4125C69.3255 82.4125 68.139 82.4125 56.5 82.4125C44.861 82.4125 43.6745 82.4125 39.211 82.4125C35.7178 82.326 32.2643 81.7646 28.9845 80.75C26.1827 79.8747 23.6525 78.4782 21.583 76.665C19.5358 74.9609 17.9548 72.9024 16.95 70.6325C15.7384 67.8781 15.0889 64.9713 15.029 62.035C15.029 58.2825 15.029 57.285 15.029 47.5C15.029 37.715 15.029 36.7175 15.029 32.965C15.0889 30.0287 15.7384 27.122 16.95 24.3675C17.9912 22.012 19.6523 19.8848 21.809 18.145C23.8449 16.4332 26.2909 15.1054 28.9845 14.25C32.2643 13.2354 35.7178 12.674 39.211 12.5875C43.6745 12.5875 44.861 12.5875 56.5 12.5875C68.139 12.5875 69.3255 12.5875 73.789 12.5875C77.2822 12.674 80.7357 13.2354 84.0155 14.25C86.8173 15.1253 89.3475 16.5218 91.417 18.335C93.4642 20.0391 95.0452 22.0976 96.05 24.3675C97.2568 27.1248 97.9246 30.0282 98.0275 32.965C98.0275 36.7175 98.0275 37.715 98.0275 47.5C98.0275 57.285 98.423 58.2825 98.2535 62.035V62.0825ZM89.2135 26.7425C88.5408 25.2082 87.4802 23.8148 86.1048 22.6585C84.7294 21.5022 83.072 20.6105 81.247 20.045C78.7411 19.3147 76.1018 18.961 73.45 19C69.043 19 67.8 19 56.5 19C45.2 19 43.957 19 39.55 19C36.8847 19.0219 34.245 19.44 31.753 20.235C29.9559 20.7749 28.3161 21.6301 26.9425 22.744C25.5689 23.8578 24.4931 25.2046 23.7865 26.695C22.966 28.8105 22.5651 31.0251 22.6 33.25C22.6 36.955 22.6 38 22.6 47.5C22.6 57 22.6 58.045 22.6 61.75C22.656 63.9882 23.1524 66.2031 24.069 68.305C24.7417 69.8393 25.8023 71.2327 27.1777 72.389C28.5531 73.5453 30.2105 74.437 32.0355 75.0025C34.4462 75.7478 36.9829 76.1647 39.55 76.2375C43.957 76.2375 45.2 76.2375 56.5 76.2375C67.8 76.2375 69.043 76.2375 73.45 76.2375C76.1153 76.2156 78.755 75.7975 81.247 75.0025C83.072 74.437 84.7294 73.5453 86.1048 72.389C87.4802 71.2327 88.5408 69.8393 89.2135 68.305C90.1591 66.2099 90.6564 63.9907 90.6825 61.75C90.6825 58.045 90.6825 57 90.6825 47.5C90.6825 38 90.6825 36.955 90.6825 33.25C90.6841 31.007 90.1859 28.7837 89.2135 26.695V26.7425ZM56.5 65.645C53.6683 65.645 50.8645 65.1753 48.2491 64.2629C45.6337 63.3504 43.2581 62.0131 41.2585 60.3276C39.2588 58.642 37.6743 56.6414 36.5959 54.4402C35.5174 52.239 34.9661 49.8806 34.9735 47.5C34.9735 43.9092 36.2408 40.3992 38.6149 37.4143C40.9889 34.4293 44.3631 32.1037 48.3101 30.7317C52.2572 29.3598 56.5997 29.0032 60.788 29.7072C64.9762 30.4112 68.8218 32.1441 71.838 34.6864C74.8541 37.2288 76.9053 40.4664 77.7317 43.9893C78.5581 47.5122 78.1226 51.162 76.4803 54.4768C74.8381 57.7915 72.063 60.6221 68.5062 62.6101C64.9495 64.5982 60.7711 65.6544 56.5 65.645ZM79.1 32.9175C77.851 32.8064 76.6952 32.3105 75.8551 31.5256C75.0151 30.7407 74.5503 29.7221 74.5503 28.6662C74.5503 27.6104 75.0151 26.5918 75.8551 25.8069C76.6952 25.022 77.851 24.5261 79.1 24.415C80.349 24.5261 81.5048 25.022 82.3449 25.8069C83.1849 26.5918 83.6497 27.6104 83.6497 28.6662C83.6497 29.7221 83.1849 30.7407 82.3449 31.5256C81.5048 32.3105 80.349 32.8064 79.1 32.9175Z" fill="#34A853"/>
</svg>
