<svg width="113" height="95" viewBox="0 0 113 95" fill="none" xmlns="http://www.w3.org/2000/svg">
<path d="M82.8783 57.0474C81.743 56.573 74.3634 53.7266 73.2281 53.2522C72.0928 52.7778 70.9575 52.7778 69.8222 53.7266C68.6868 54.6754 66.4162 57.5218 65.2809 58.4707C64.7132 59.4195 63.5779 59.4195 62.4426 58.9451C58.469 57.5218 54.4953 55.6242 51.0894 53.2522C48.2511 50.8801 45.4128 48.0337 43.1422 45.1873C42.5745 44.2385 43.1421 43.2896 43.7098 42.8152C44.2775 42.3408 44.8451 41.392 45.9804 40.9176C46.5481 40.4432 47.1158 39.4944 47.1158 39.02C47.6834 38.5456 47.6834 37.5968 47.1158 37.1223C46.5481 36.6479 43.7098 30.9551 42.5745 28.583C42.0068 25.2622 40.8715 25.2622 39.7362 25.2622H36.8979C35.7626 25.2622 34.0596 26.211 33.4919 26.6854C30.086 29.5318 28.383 32.8527 28.383 36.6479C28.9507 40.9176 30.6536 45.1873 34.0596 48.9825C40.3038 56.573 48.2511 62.7403 57.9013 66.5356C60.7396 67.4844 63.0102 68.4332 65.8485 68.9076C68.6868 69.8564 71.5251 69.8564 74.9311 69.382C78.9047 68.9076 82.3107 66.5356 84.5813 63.6891C85.7166 61.7915 85.7166 59.8939 85.149 57.9963L82.8783 57.0474ZM97.0698 13.8764C74.9311 -4.62547 39.1685 -4.62547 17.0298 13.8764C-1.13532 29.0574 -4.54128 52.3034 7.94724 70.8052L0 95L30.086 88.3583C38.6009 92.1536 47.6834 94.0512 56.766 94.0512C87.9873 94.0512 112.964 73.1773 112.964 47.0849C113.532 34.7503 107.288 22.8901 97.0698 13.8764ZM81.743 80.2934C74.3634 84.0886 65.8485 86.4607 56.766 86.4607C48.2511 86.4607 40.3039 84.563 32.9243 81.2422L31.2213 80.2934L13.6238 84.0886L18.1651 69.8564L17.0298 68.4332C3.40596 49.4569 10.2179 25.7366 32.3566 13.8764C54.4953 2.01623 82.8783 8.18352 96.5022 26.211C110.126 44.7129 103.882 68.9076 81.743 80.2934Z" fill="#34A853"/>
</svg>
